<svg xmlns="http://www.w3.org/2000/svg" viewBox="0 0 64 64">
  <!-- Big boss body -->
  <path d="M16 48 C16 32 48 32 48 48 L16 48 Z" fill="#8b4513" /> <!-- Bottom part -->
  <rect x="20" y="24" width="24" height="24" rx="2" fill="#8b4513" /> <!-- Torso -->
  
  <!-- Head -->
  <circle cx="32" cy="16" r="8" fill="#a5682a" />
  
  <!-- Eyes -->
  <circle cx="28" cy="14" r="2" fill="red" />
  <circle cx="36" cy="14" r="2" fill="red" />
  
  <!-- Angry eyebrows -->
  <path d="M26 12 L30 13" stroke="black" stroke-width="1" />
  <path d="M38 12 L34 13" stroke="black" stroke-width="1" />
  
  <!-- Mean mouth -->
  <path d="M28 20 Q32 18 36 20" fill="none" stroke="black" stroke-width="1" />
  
  <!-- Border patrol cap -->
  <path d="M24 10 L40 10 L40 8 L24 8 Z" fill="#336633" />
  <path d="M22 10 L42 10 L42 12 L22 12 Z" fill="#336633" />
  <circle cx="32" cy="10" r="2" fill="#ffcc00" /> <!-- Badge -->
  
  <!-- Arms -->
  <rect x="12" y="28" width="8" height="6" rx="3" fill="#a5682a" /> <!-- Left arm -->
  <rect x="44" y="28" width="8" height="6" rx="3" fill="#a5682a" /> <!-- Right arm -->
  
  <!-- Baton -->
  <rect x="44" y="34" width="2" height="12" fill="black" />
  
  <!-- Badge on chest -->
  <circle cx="32" cy="30" r="3" fill="#ffcc00" />
  <path d="M32 27 L30 33 L34 33 Z" fill="#ffcc00" />
  
  <!-- Menacing glow -->
  <circle cx="32" cy="32" r="32" fill="red" opacity="0.1" />
</svg>