<svg xmlns="http://www.w3.org/2000/svg" viewBox="0 0 64 64">
  <!-- Cat Body -->
  <ellipse cx="32" cy="40" rx="16" ry="8" fill="#777777" />
  
  <!-- Cat Head -->
  <circle cx="32" cy="30" r="10" fill="#777777" />
  
  <!-- Ears -->
  <polygon points="24,26 28,22 30,28" fill="#777777" />
  <polygon points="40,26 36,22 34,28" fill="#777777" />
  
  <!-- Eyes -->
  <ellipse cx="28" cy="28" rx="2" ry="3" fill="#ffff00" />
  <ellipse cx="36" cy="28" rx="2" ry="3" fill="#ffff00" />
  <ellipse cx="28" cy="28" rx="1" ry="1.5" fill="#000000" />
  <ellipse cx="36" cy="28" rx="1" ry="1.5" fill="#000000" />
  
  <!-- Nose and Mouth -->
  <circle cx="32" cy="31" r="1" fill="#ff9999" />
  <path d="M32,32 C32,35 29,34 29,32" fill="none" stroke="#000000" stroke-width="0.5" />
  <path d="M32,32 C32,35 35,34 35,32" fill="none" stroke="#000000" stroke-width="0.5" />
  
  <!-- Whiskers -->
  <line x1="29" y1="31" x2="23" y2="30" stroke="#000000" stroke-width="0.5" />
  <line x1="29" y1="32" x2="23" y2="32" stroke="#000000" stroke-width="0.5" />
  <line x1="35" y1="31" x2="41" y2="30" stroke="#000000" stroke-width="0.5" />
  <line x1="35" y1="32" x2="41" y2="32" stroke="#000000" stroke-width="0.5" />
  
  <!-- Tail -->
  <path d="M48,40 C56,35 56,25 50,28" fill="none" stroke="#777777" stroke-width="4" stroke-linecap="round" />
  
  <!-- Legs -->
  <rect x="22" y="40" width="4" height="8" rx="2" fill="#777777" />
  <rect x="38" y="40" width="4" height="8" rx="2" fill="#777777" />
  <rect x="26" y="40" width="4" height="8" rx="2" fill="#777777" />
  <rect x="34" y="40" width="4" height="8" rx="2" fill="#777777" />
</svg>