<?xml version="1.0" encoding="UTF-8"?>
<svg width="128" height="128" viewBox="0 0 128 128" xmlns="http://www.w3.org/2000/svg">
  <!-- Main body -->
  <ellipse cx="64" cy="64" rx="32" ry="16" fill="#333344" />
  <rect x="32" y="60" width="64" height="8" fill="#222233" />
  
  <!-- Camera/Sensor Array -->
  <circle cx="50" cy="64" r="8" fill="#111122" />
  <circle cx="50" cy="64" r="6" fill="#000011" />
  <circle cx="50" cy="64" r="3" fill="#ff0000" opacity="0.8" />
  <path d="M50,61 L50,67" stroke="#444455" stroke-width="1" />
  <path d="M47,64 L53,64" stroke="#444455" stroke-width="1" />
  
  <!-- Propellers -->
  <g opacity="0.7">
    <ellipse cx="34" cy="54" rx="8" ry="2" fill="#555566" />
    <ellipse cx="94" cy="54" rx="8" ry="2" fill="#555566" />
    <ellipse cx="34" cy="74" rx="8" ry="2" fill="#555566" />
    <ellipse cx="94" cy="74" rx="8" ry="2" fill="#555566" />
  </g>
  
  <!-- Propeller blades (blurred for spinning effect) -->
  <g opacity="0.4">
    <ellipse cx="34" cy="54" rx="18" ry="4" fill="#999999" />
    <ellipse cx="94" cy="54" rx="18" ry="4" fill="#999999" />
    <ellipse cx="34" cy="74" rx="18" ry="4" fill="#999999" />
    <ellipse cx="94" cy="74" rx="18" ry="4" fill="#999999" />
  </g>
  
  <!-- Lights -->
  <circle cx="85" cy="64" r="4" fill="#22aaff" opacity="0.8" />
  <circle cx="75" cy="60" r="2" fill="#ff2222" opacity="0.5" />
  <circle cx="75" cy="68" r="2" fill="#ff2222" opacity="0.5" />
  
  <!-- Antenna -->
  <line x1="64" y1="48" x2="64" y2="36" stroke="#444455" stroke-width="2" />
  <circle cx="64" cy="34" r="2" fill="#ff4444" />
  
  <!-- Reflection highlights -->
  <ellipse cx="54" cy="58" rx="10" ry="4" fill="#ffffff" opacity="0.1" />
</svg>