<svg xmlns="http://www.w3.org/2000/svg" viewBox="0 0 64 64">
  <!-- Fish Body -->
  <path d="M20,32 C20,24 30,20 40,24 C50,28 58,32 50,40 C42,48 30,40 20,32 Z" fill="#ff8800" />
  
  <!-- Tail -->
  <path d="M20,32 L12,24 L8,32 L12,40 L20,32 Z" fill="#ff8800" />
  
  <!-- Eye -->
  <circle cx="42" cy="30" r="3" fill="white" />
  <circle cx="42" cy="30" r="1.5" fill="black" />
  
  <!-- Fins -->
  <path d="M35,24 L30,18 L38,22" fill="#ff8800" />
  <path d="M35,40 L30,46 L38,42" fill="#ff8800" />
  
  <!-- Scales pattern -->
  <path d="M25,28 C27,26 29,26 31,28" fill="none" stroke="#ffaa44" stroke-width="0.5" />
  <path d="M28,32 C30,30 32,30 34,32" fill="none" stroke="#ffaa44" stroke-width="0.5" />
  <path d="M25,36 C27,34 29,34 31,36" fill="none" stroke="#ffaa44" stroke-width="0.5" />
  <path d="M32,28 C34,26 36,26 38,28" fill="none" stroke="#ffaa44" stroke-width="0.5" />
  <path d="M35,32 C37,30 39,30 41,32" fill="none" stroke="#ffaa44" stroke-width="0.5" />
  <path d="M32,36 C34,34 36,34 38,36" fill="none" stroke="#ffaa44" stroke-width="0.5" />
  
  <!-- Bubbles -->
  <circle cx="10" cy="26" r="1" fill="#a0e0ff" />
  <circle cx="12" cy="23" r="1.5" fill="#a0e0ff" />
  <circle cx="8" cy="29" r="1" fill="#a0e0ff" />
</svg>