<svg xmlns="http://www.w3.org/2000/svg" viewBox="0 0 64 64">
  <!-- Frog Body -->
  <ellipse cx="32" cy="40" rx="16" ry="10" fill="#66cc66" />
  
  <!-- Head -->
  <circle cx="32" cy="28" r="12" fill="#66cc66" />
  
  <!-- Eyes -->
  <circle cx="26" cy="24" r="4" fill="white" />
  <circle cx="38" cy="24" r="4" fill="white" />
  <circle cx="26" cy="24" r="2" fill="black" />
  <circle cx="38" cy="24" r="2" fill="black" />
  
  <!-- Mouth -->
  <path d="M24,32 Q32,36 40,32" fill="none" stroke="#006600" stroke-width="1.5" />
  
  <!-- Front Legs -->
  <path d="M22,38 Q18,44 14,44" fill="none" stroke="#66cc66" stroke-width="4" stroke-linecap="round" />
  <path d="M42,38 Q46,44 50,44" fill="none" stroke="#66cc66" stroke-width="4" stroke-linecap="round" />
  
  <!-- Back Legs -->
  <path d="M24,48 Q18,52 22,58" fill="none" stroke="#66cc66" stroke-width="4" stroke-linecap="round" />
  <path d="M40,48 Q46,52 42,58" fill="none" stroke="#66cc66" stroke-width="4" stroke-linecap="round" />
  
  <!-- Spots -->
  <circle cx="24" cy="36" r="2" fill="#009900" />
  <circle cx="36" cy="40" r="2" fill="#009900" />
  <circle cx="30" cy="44" r="2" fill="#009900" />
  <circle cx="40" cy="32" r="2" fill="#009900" />
  
  <!-- Belly -->
  <ellipse cx="32" cy="42" rx="10" ry="6" fill="#99ff99" />
</svg>