<?xml version="1.0" encoding="UTF-8"?>
<svg width="128" height="128" viewBox="0 0 128 128" xmlns="http://www.w3.org/2000/svg">
  <!-- Base of the trap -->
  <rect x="14" y="64" width="100" height="10" fill="#553311" />
  
  <!-- Wooden parts -->
  <rect x="14" y="44" width="100" height="20" fill="#774422" />
  <rect x="14" y="74" width="100" height="10" fill="#442200" />
  
  <!-- Spikes -->
  <g fill="#330000">
    <polygon points="30,44 35,24 40,44" />
    <polygon points="50,44 55,24 60,44" />
    <polygon points="70,44 75,24 80,44" />
    <polygon points="90,44 95,24 100,44" />
    
    <polygon points="30,84 35,104 40,84" />
    <polygon points="50,84 55,104 60,84" />
    <polygon points="70,84 75,104 80,84" />
    <polygon points="90,84 95,104 100,84" />
  </g>
  
  <!-- Ropes and binding -->
  <path d="M20,44 C25,40 30,48 35,44 C40,40 45,48 50,44" stroke="#885500" stroke-width="2" fill="none" />
  <path d="M60,44 C65,40 70,48 75,44 C80,40 85,48 90,44" stroke="#885500" stroke-width="2" fill="none" />
  <path d="M20,84 C25,88 30,80 35,84 C40,88 45,80 50,84" stroke="#885500" stroke-width="2" fill="none" />
  <path d="M60,84 C65,88 70,80 75,84 C80,88 85,80 90,84" stroke="#885500" stroke-width="2" fill="none" />
  
  <!-- Vines -->
  <path d="M14,50 C20,55 25,45 30,50 C35,55 40,45 45,50" stroke="#116633" stroke-width="2" fill="none" />
  <path d="M85,50 C90,55 95,45 100,50 C105,55 110,45 114,50" stroke="#116633" stroke-width="2" fill="none" />
  
  <!-- Leaves -->
  <g fill="#228844" opacity="0.7">
    <ellipse cx="20" cy="45" rx="6" ry="3" />
    <ellipse cx="110" cy="45" rx="6" ry="3" />
    <ellipse cx="35" cy="48" rx="5" ry="2" />
    <ellipse cx="95" cy="48" rx="5" ry="2" />
  </g>
</svg>