<svg xmlns="http://www.w3.org/2000/svg" viewBox="0 0 64 64">
  <!-- Mouse Body -->
  <ellipse cx="32" cy="36" rx="14" ry="10" fill="#aaaaaa" />
  
  <!-- Mouse Head -->
  <circle cx="48" cy="36" r="8" fill="#aaaaaa" />
  
  <!-- Ears -->
  <circle cx="46" cy="30" r="4" fill="#dddddd" />
  <circle cx="50" cy="30" r="4" fill="#dddddd" />
  
  <!-- Eyes -->
  <circle cx="50" cy="34" r="1.5" fill="black" />
  <circle cx="50" cy="34" r="0.5" fill="white" />
  
  <!-- Nose -->
  <circle cx="56" cy="36" r="2" fill="#ffcccc" />
  
  <!-- Whiskers -->
  <line x1="54" y1="35" x2="60" y2="33" stroke="black" stroke-width="0.5" />
  <line x1="54" y1="36" x2="60" y2="36" stroke="black" stroke-width="0.5" />
  <line x1="54" y1="37" x2="60" y2="39" stroke="black" stroke-width="0.5" />
  
  <!-- Tail -->
  <path d="M18,36 C12,38 8,32 4,34" fill="none" stroke="#aaaaaa" stroke-width="4" stroke-linecap="round" />
  
  <!-- Legs -->
  <rect x="24" y="46" width="4" height="6" rx="2" fill="#aaaaaa" />
  <rect x="36" y="46" width="4" height="6" rx="2" fill="#aaaaaa" />
  <rect x="28" y="46" width="4" height="6" rx="2" fill="#aaaaaa" />
  <rect x="32" y="46" width="4" height="6" rx="2" fill="#aaaaaa" />
</svg>