<svg xmlns="http://www.w3.org/2000/svg" viewBox="0 0 64 64">
  <!-- Mushroom cap -->
  <path d="M12 32 C12 18 52 18 52 32 L12 32 Z" fill="#ff5555" />
  
  <!-- White spots on cap -->
  <circle cx="20" cy="24" r="3" fill="#ffffff" />
  <circle cx="32" cy="22" r="4" fill="#ffffff" />
  <circle cx="44" cy="26" r="3" fill="#ffffff" />
  <circle cx="28" cy="28" r="2" fill="#ffffff" />
  <circle cx="38" cy="28" r="2" fill="#ffffff" />
  
  <!-- Stem -->
  <rect x="26" y="32" width="12" height="14" fill="#eeeeee" />
  
  <!-- Ground shadow -->
  <ellipse cx="32" cy="46" rx="8" ry="2" fill="#222222" opacity="0.3" />
  
  <!-- Gold stars for powerup indication -->
  <polygon points="20,12 22,18 28,18 24,22 26,28 20,24 14,28 16,22 12,18 18,18" fill="#ffcc00" />
  <polygon points="44,12 46,18 52,18 48,22 50,28 44,24 38,28 40,22 36,18 42,18" fill="#ffcc00" />
  
  <!-- Glow effect -->
  <circle cx="32" cy="28" r="24" fill="#ffff00" opacity="0.1" />
</svg>