<?xml version="1.0" encoding="UTF-8"?>
<svg width="128" height="128" viewBox="0 0 128 128" xmlns="http://www.w3.org/2000/svg">
  <defs>
    <radialGradient id="sandstormGrad" cx="50%" cy="50%" r="50%" gradientUnits="userSpaceOnUse">
      <stop offset="0%" stop-color="#d2b48c" stop-opacity="0.9"/>
      <stop offset="70%" stop-color="#d2b48c" stop-opacity="0.6"/>
      <stop offset="100%" stop-color="#d2b48c" stop-opacity="0"/>
    </radialGradient>
  </defs>
  <circle cx="64" cy="64" r="60" fill="url(#sandstormGrad)" />
  <g opacity="0.6">
    <path d="M25,55 Q40,45 55,60 Q70,75 85,65 Q100,55 110,65" stroke="#c19a6b" stroke-width="3" fill="none" />
    <path d="M20,75 Q35,65 50,80 Q65,95 80,85 Q95,75 105,85" stroke="#c19a6b" stroke-width="2" fill="none" />
    <path d="M30,45 Q45,35 60,50 Q75,65 90,55 Q105,45 115,55" stroke="#c19a6b" stroke-width="2" fill="none" />
  </g>
  <g opacity="0.4">
    <circle cx="45" cy="55" r="2" fill="#aa8855" />
    <circle cx="65" cy="45" r="3" fill="#aa8855" />
    <circle cx="85" cy="65" r="2" fill="#aa8855" />
    <circle cx="55" cy="75" r="3" fill="#aa8855" />
    <circle cx="75" cy="85" r="2" fill="#aa8855" />
    <circle cx="35" cy="65" r="3" fill="#aa8855" />
    <circle cx="50" cy="55" r="1" fill="#aa8855" />
    <circle cx="70" cy="75" r="1" fill="#aa8855" />
    <circle cx="90" cy="55" r="1" fill="#aa8855" />
    <circle cx="40" cy="85" r="1" fill="#aa8855" />
    <circle cx="60" cy="65" r="1" fill="#aa8855" />
    <circle cx="80" cy="45" r="1" fill="#aa8855" />
  </g>
</svg>