<svg xmlns="http://www.w3.org/2000/svg" viewBox="0 0 64 64">
  <!-- Shark Body -->
  <path d="M10,32 C10,24 20,20 30,20 C40,20 45,28 55,28 L58,32 L55,36 C45,36 40,44 30,44 C20,44 10,40 10,32 Z" fill="#6e7e91" />
  
  <!-- Shark Fin -->
  <polygon points="30,20 36,12 40,20" fill="#6e7e91" />
  
  <!-- Tail -->
  <path d="M10,32 L4,24 L2,32 L4,40 L10,32 Z" fill="#6e7e91" />
  
  <!-- Eye -->
  <circle cx="48" cy="30" r="2" fill="black" />
  <circle cx="48" cy="30" r="0.5" fill="white" />
  
  <!-- Mouth -->
  <path d="M50,33 C46,36 42,36 38,34" fill="none" stroke="black" stroke-width="1" />
  
  <!-- Teeth -->
  <polygon points="43,33.5 45,33.5 44,35" fill="white" />
  <polygon points="40,33.5 42,33.5 41,35" fill="white" />
  <polygon points="46,33.5 48,33.5 47,35" fill="white" />
  
  <!-- Gills -->
  <path d="M38,30 L36,30" stroke="white" stroke-width="1" />
  <path d="M38,32 L36,32" stroke="white" stroke-width="1" />
  <path d="M38,34 L36,34" stroke="white" stroke-width="1" />
  
  <!-- Water splashes around the shark -->
  <path d="M15,26 C13,24 13,22 15,20" fill="none" stroke="#a0e0ff" stroke-width="1" />
  <path d="M25,24 C23,22 23,20 25,18" fill="none" stroke="#a0e0ff" stroke-width="1" />
  <path d="M20,40 C18,42 18,44 20,46" fill="none" stroke="#a0e0ff" stroke-width="1" />
  <path d="M30,42 C28,44 28,46 30,48" fill="none" stroke="#a0e0ff" stroke-width="1" />
</svg>