<?xml version="1.0" encoding="UTF-8"?>
<svg width="128" height="128" viewBox="0 0 128 128" xmlns="http://www.w3.org/2000/svg">
  <!-- Spotlight base -->
  <rect x="44" y="20" width="40" height="20" rx="2" fill="#111122" />
  
  <!-- Spotlight housing -->
  <path d="M54,40 L44,60 L84,60 L74,40 Z" fill="#222233" />
  
  <!-- Light cone (semi-transparent) -->
  <defs>
    <linearGradient id="lightBeam" x1="0%" y1="0%" x2="0%" y2="100%">
      <stop offset="0%" stop-color="#ffffff" stop-opacity="0.8"/>
      <stop offset="20%" stop-color="#ffffff" stop-opacity="0.6"/>
      <stop offset="40%" stop-color="#ffffdd" stop-opacity="0.4"/>
      <stop offset="60%" stop-color="#ffffdd" stop-opacity="0.3"/>
      <stop offset="80%" stop-color="#ffffdd" stop-opacity="0.2"/>
      <stop offset="100%" stop-color="#ffffdd" stop-opacity="0"/>
    </linearGradient>
  </defs>
  
  <path d="M53,60 L30,100 L98,100 L75,60 Z" fill="url(#lightBeam)" />
  
  <!-- Light source (bright center) -->
  <ellipse cx="64" cy="60" rx="10" ry="5" fill="#ffffff" />
  <ellipse cx="64" cy="60" rx="7" ry="3" fill="#ffffaa" />
  <ellipse cx="64" cy="60" rx="4" ry="2" fill="#ffffff" />
  
  <!-- Support pole -->
  <rect x="61" y="10" width="6" height="10" fill="#333344" />
  <rect x="62" y="5" width="4" height="5" fill="#444455" />
  
  <!-- Mounting hardware -->
  <rect x="59" y="20" width="10" height="3" fill="#444455" rx="1" />
  <rect x="50" y="40" width="28" height="3" fill="#444455" rx="1" />
  
  <!-- Lens details -->
  <ellipse cx="64" cy="55" rx="12" ry="7" fill="none" stroke="#666677" stroke-width="1" />
  <ellipse cx="64" cy="55" rx="8" ry="5" fill="none" stroke="#666677" stroke-width="1" />
  
  <!-- Reflection highlights -->
  <ellipse cx="60" cy="53" rx="3" ry="2" fill="#ffffff" opacity="0.4" />
</svg>