<svg xmlns="http://www.w3.org/2000/svg" viewBox="0 0 64 64">
  <!-- Statue base -->
  <rect x="16" y="48" width="32" height="8" rx="2" fill="#8b4513" />
  
  <!-- Man figure -->
  <rect x="24" y="20" width="16" height="28" fill="#d2b48c" />
  
  <!-- Head -->
  <circle cx="32" cy="16" r="8" fill="#d2b48c" />
  
  <!-- Sombrero -->
  <ellipse cx="32" cy="12" rx="16" ry="4" fill="#f5deb3" />
  <ellipse cx="32" cy="12" rx="6" ry="2" fill="#8b4513" />
  
  <!-- Face details -->
  <circle cx="29" cy="15" r="1" fill="#000000" />
  <circle cx="35" cy="15" r="1" fill="#000000" />
  <path d="M29 19 Q32 21 35 19" fill="none" stroke="#000000" stroke-width="1" />
  <path d="M31 17 L33 17" fill="none" stroke="#000000" stroke-width="1" />
  
  <!-- Poncho -->
  <rect x="20" y="20" width="24" height="8" fill="#f08080" />
  <rect x="20" y="28" width="24" height="2" fill="#cd5c5c" />
  
  <!-- Arms -->
  <rect x="18" y="24" width="6" height="4" fill="#d2b48c" />
  <rect x="40" y="24" width="6" height="4" fill="#d2b48c" />
  
  <!-- Tequila bottle -->
  <rect x="40" y="28" width="4" height="10" fill="#6b8e23" />
  <rect x="42" y="26" width="2" height="2" fill="#808000" />
  
  <!-- Activation glow -->
  <circle cx="32" cy="32" r="24" fill="#ffff00" opacity="0.1" />
</svg>