<svg xmlns="http://www.w3.org/2000/svg" viewBox="0 0 256 256">
  <!-- Background grid -->
  <rect width="256" height="256" fill="#8B4513" />
  
  <!-- Ground tiles (8x8 grid of 32x32 tiles) -->
  <g fill="#A0522D">
    <!-- Row 1 -->
    <rect x="0" y="0" width="32" height="32" />
    <rect x="64" y="0" width="32" height="32" />
    <rect x="128" y="0" width="32" height="32" />
    <rect x="192" y="0" width="32" height="32" />
    
    <!-- Row 3 -->
    <rect x="0" y="64" width="32" height="32" />
    <rect x="64" y="64" width="32" height="32" />
    <rect x="128" y="64" width="32" height="32" />
    <rect x="192" y="64" width="32" height="32" />
    
    <!-- Row 5 -->
    <rect x="0" y="128" width="32" height="32" />
    <rect x="64" y="128" width="32" height="32" />
    <rect x="128" y="128" width="32" height="32" />
    <rect x="192" y="128" width="32" height="32" />
    
    <!-- Row 7 -->
    <rect x="0" y="192" width="32" height="32" />
    <rect x="64" y="192" width="32" height="32" />
    <rect x="128" y="192" width="32" height="32" />
    <rect x="192" y="192" width="32" height="32" />
  </g>
  
  <!-- Tile details -->
  <g fill="#754C24">
    <!-- Top edges -->
    <rect x="0" y="0" width="32" height="4" />
    <rect x="64" y="0" width="32" height="4" />
    <rect x="128" y="0" width="32" height="4" />
    <rect x="192" y="0" width="32" height="4" />
    
    <!-- Bottom edges -->
    <rect x="32" y="60" width="32" height="4" />
    <rect x="96" y="60" width="32" height="4" />
    <rect x="160" y="60" width="32" height="4" />
    <rect x="224" y="60" width="32" height="4" />
    
    <!-- Left edges -->
    <rect x="0" y="32" width="4" height="32" />
    <rect x="0" y="96" width="4" height="32" />
    <rect x="0" y="160" width="4" height="32" />
    <rect x="0" y="224" width="4" height="32" />
    
    <!-- Right edges -->
    <rect x="60" y="32" width="4" height="32" />
    <rect x="60" y="96" width="4" height="32" />
    <rect x="60" y="160" width="4" height="32" />
    <rect x="60" y="224" width="4" height="32" />
    
    <!-- Small details/cracks -->
    <rect x="16" y="16" width="8" height="2" />
    <rect x="96" y="24" width="6" height="6" />
    <rect x="144" y="48" width="4" height="8" />
    <rect x="208" y="32" width="10" height="4" />
    <rect x="48" y="80" width="4" height="12" />
    <rect x="112" y="112" width="8" height="8" />
    <rect x="176" y="144" width="6" height="6" />
    <rect x="240" y="176" width="4" height="10" />
    <rect x="32" y="208" width="8" height="4" />
    <rect x="80" y="224" width="12" height="6" />
    <rect x="144" y="192" width="4" height="12" />
    <rect x="200" y="224" width="8" height="8" />
  </g>
</svg>
